<svg version="1.2" xmlns="http://www.w3.org/2000/svg" viewBox="0 0 1000 250" width="1000" height="250">
	<style>
		.s0 { fill: #0d1117;stroke: #b3b3b3;stroke-linecap: round;stroke-linejoin: round;stroke-width: 5 } 
		.s1 { fill: #ffffff } 
		.s2 { fill: #d18d32 } 
		.s3 { fill: #3d32d1 } 
		.s4 { fill: #cbd132 } 
		.s5 { fill: #ffffff;stroke: #ffffff;paint-order:stroke fill markers;stroke-linecap: round;stroke-linejoin: round;stroke-width: 2 } 
	</style>
	<path id="Background" fill-rule="evenodd" class="s0" d="m25 0h950c13.81 0 25 11.19 25 25v200c0 13.81-11.19 25-25 25h-950c-13.81 0-25-11.19-25-25v-200c0-13.81 11.19-25 25-25z"/>
	<path id="PHP" class="s1" aria-label="PHP"  d="m94.5 174.4q4.9 0 7.6 2 2.7 2 2.7 6.4 0 2.6-1.1 4.7-1.2 2-3.5 3.2-2.3 1.2-5.4 1.2h-3.5v11.1h-4.9l0.1-28.6zm-0.2 13.9q2.9 0 4.3-1.3 1.5-1.4 1.5-4 0-2.5-1.5-3.8-1.4-1.3-4-1.3h-3.2v10.4zm33.5-1.4v-12.5h4.9l-0.1 28.6h-4.9v-12.4h-13.3v12.4h-4.9v-28.6h4.9v12.5zm19.7-12.5q4.9 0 7.6 2 2.7 2 2.7 6.4 0 2.6-1.1 4.7-1.2 2-3.5 3.2-2.3 1.2-5.4 1.2h-3.5v11.1h-4.9l0.1-28.6zm-0.1 13.9q2.8 0 4.2-1.3 1.5-1.4 1.5-4 0-2.5-1.5-3.8-1.4-1.3-4-1.3h-3.2v10.4z"/>
	<path id="Circle" fill-rule="evenodd" class="s2" d="m56.58 203.17c-8.06 0-14.58-6.52-14.58-14.59 0-8.06 6.52-14.58 14.58-14.58 8.07 0 14.59 6.52 14.59 14.58 0 8.07-6.52 14.59-14.59 14.59z"/>
	<path id="CSS" class="s1" aria-label="CSS"  d="m243.3 203.5q-4.5 0-7.8-1.7-3.3-1.7-5.2-5-1.8-3.3-1.8-8 0-4.2 1.8-7.6 1.8-3.4 5.2-5.3 3.4-2 8.2-2 2.2 0 4.2 0.4 2.2 0.4 4.1 1.1v4.2q-2.2-1-4.3-1.4-2-0.5-3.8-0.5-3.3 0-5.6 1.5-2.3 1.3-3.4 3.8-1.2 2.5-1.2 5.7 0 2.9 1.1 5.3 1 2.5 3.3 4 2.2 1.5 5.6 1.5 2 0 3.9-0.3 1.9-0.4 4.1-1.2l-0.1 4.1q-3.7 1.4-8.3 1.4zm20.3 0q-2.1 0-4.4-0.4-2.3-0.4-4.4-1.2v-4.5q4.9 2 9.1 2 2.9 0 4.4-1.1 1.5-1.2 1.5-3.1 0-1-0.4-1.8-0.4-0.7-1.5-1.3-1-0.6-2.8-1.1l-2.7-0.7q-2.9-0.8-4.5-1.9-1.6-1-2.4-2.5-0.7-1.5-0.7-3.6 0-2.2 1.2-4.2 1.2-1.9 3.7-3 2.4-1.2 6.2-1.2 1.9 0 4 0.4 2.1 0.4 3.6 1.1v4.2q-2-1-4-1.5-2-0.5-3.9-0.5-1.9 0-3.2 0.6-1.3 0.5-2 1.5-0.6 0.9-0.6 2 0 1.6 1 2.5 0.9 0.8 2.7 1.3l3.6 1q2.8 0.7 4.5 1.8 1.7 1.1 2.5 2.6 0.8 1.5 0.8 3.6 0 2.9-1.4 4.9-1.5 2-4 3.1-2.6 1-5.9 1zm24 0q-2.1 0-4.4-0.4-2.3-0.4-4.4-1.2v-4.5q4.9 2 9.1 2 2.9 0 4.4-1.1 1.5-1.2 1.5-3.1 0-1-0.4-1.8-0.4-0.7-1.5-1.3-1-0.6-2.8-1.1l-2.7-0.7q-2.9-0.8-4.5-1.9-1.6-1-2.4-2.5-0.7-1.5-0.7-3.6 0-2.2 1.2-4.2 1.2-1.9 3.7-3 2.4-1.2 6.2-1.2 1.9 0 4 0.4 2.1 0.4 3.6 1.1v4.2q-2-1-4-1.5-2-0.5-3.9-0.5-1.9 0-3.2 0.6-1.3 0.5-2 1.5-0.6 0.9-0.6 2 0 1.6 1 2.5 0.9 0.8 2.7 1.3l3.6 1q2.8 0.7 4.5 1.8 1.7 1.1 2.5 2.6 0.8 1.5 0.8 3.6 0 2.9-1.4 4.9-1.5 2-4 3.1-2.6 1-5.9 1z"/>
	<path id="Circle copy" fill-rule="evenodd" class="s3" d="m200.58 203.17c-8.06 0-14.58-6.52-14.58-14.59 0-8.06 6.52-14.58 14.58-14.58 8.07 0 14.59 6.52 14.59 14.58 0 8.07-6.52 14.59-14.59 14.59z"/>
	<path id="JS" class="s1" aria-label="JS"  d="m367 210.8l-1.7-3.5q2.4-1 3.8-2.6 1.4-1.6 2.1-4.1 0.8-2.5 0.8-6.2v-20h5.1l-0.1 20.1q0 4.4-1.1 7.4-1 3-3.2 5.1-2.1 2.1-5.7 3.8zm24.6-7.3q-2.1 0-4.4-0.4-2.3-0.4-4.4-1.2v-4.5q4.9 2 9.1 2 2.9 0 4.4-1.1 1.5-1.2 1.5-3.1 0-1-0.4-1.8-0.4-0.7-1.5-1.3-1-0.6-2.8-1.1l-2.7-0.7q-2.9-0.8-4.5-1.9-1.6-1-2.4-2.5-0.7-1.5-0.7-3.6 0-2.2 1.2-4.2 1.2-1.9 3.7-3 2.4-1.2 6.2-1.2 1.9 0 4 0.4 2.1 0.4 3.6 1.1v4.2q-2-1-4-1.5-2-0.5-3.9-0.5-1.9 0-3.2 0.6-1.3 0.5-2 1.5-0.6 0.9-0.6 2 0 1.6 1 2.5 0.9 0.8 2.7 1.3l3.6 1q2.8 0.7 4.5 1.8 1.7 1.1 2.5 2.6 0.8 1.5 0.8 3.6 0 2.9-1.4 4.9-1.5 2-4 3.1-2.6 1-5.9 1z"/>
	<path id="Circle copy 2" fill-rule="evenodd" class="s4" d="m341.58 203.17c-8.06 0-14.58-6.52-14.58-14.59 0-8.06 6.52-14.58 14.58-14.58 8.07 0 14.59 6.52 14.59 14.58 0 8.07-6.52 14.59-14.59 14.59z"/>
	<path id="Final Project: CS 410" class="s1" aria-label="Final Project: CS 410"  d="m131.3 49.5h-15.3v11.6h12.7v4.7h-12.8v16.2h-6.3l0.1-37.1h21.5zm7.9-1.1q-1.9 0-3-1-1.1-1.1-1.1-2.9 0-1.8 1.1-2.8 1.1-1.2 3-1.2 1.9 0 3 1.2 1.1 1 1.1 2.8 0 1.8-1.1 2.9-1.1 1-3 1zm3 33.6h-6.2l0.1-27.6h6.2zm7.8 0v-27.5h6v2.1q0 2.3-0.1 3.8h0.1q2-6.6 9.3-6.6 4.5 0 6.9 2.7 2.5 2.7 2.5 8.1l-0.1 17.4h-6.1v-16.8q0-6-5.1-6-3.3 0-5.3 2.3-1.9 2.3-2 6.9v13.6zm39.9 0.7q-2.6 0-4.6-0.9-2-0.9-3.1-2.6-1.1-1.7-1.1-4 0-2.8 1.4-4.7 1.5-1.9 4.4-3.2 3-1.2 8.2-1.5l3.1-0.3v-1.5q0-2.8-1.6-4.1-1.4-1.2-4.5-1.2-2.2 0-4.8 0.6-2.5 0.7-4.6 1.9l0.1-5q2.1-1.1 4.9-1.7 2.9-0.7 5.5-0.7 5.4 0 8.1 2.5 2.7 2.5 2.7 7.8l-0.1 17.9h-5.4v-2.6q0-1.2 0.2-3.1h-0.2q-1 3.2-3.1 4.8-2.1 1.6-5.5 1.6zm1.7-4.6q3 0 4.7-2.3 1-1.1 1.4-2.7 0.4-1.6 0.4-3.6l-1.9 0.1q-3.8 0.2-5.9 1-2 0.7-2.8 2.2-0.3 0.7-0.3 1.7 0 1.6 1.1 2.7 1.2 0.9 3.3 0.9zm26.7 3.9h-6.2l0.1-40.7h6.1zm32.6-37.1q6.3 0 9.9 2.6 3.6 2.6 3.6 8.3 0 3.4-1.6 6-1.5 2.7-4.5 4.2-3 1.5-7 1.5h-4.5v14.5h-6.4l0.1-37.1zm-0.2 18q3.7 0 5.6-1.7 1.9-1.8 1.9-5.1 0-3.3-1.9-5-1.9-1.7-5.2-1.7h-4.2v13.5zm19.2 19.1l0.1-27.6h6v2.5q0 1-0.2 4.5h0.2q0.5-3.9 2.6-5.7 2.1-1.9 5.4-1.9 1.3 0 2.7 0.3l-0.5 5.6q-1.3-0.4-2.5-0.4-2.2 0-3.9 1.1-1.7 1.1-2.7 3.2-0.9 2.2-0.9 5.1l-0.1 13.3zm32.1 0.6q-4.3 0-7.5-1.7-3.1-1.7-4.8-4.9-1.7-3.2-1.7-7.6 0-4.3 1.8-7.6 1.8-3.3 5-5.2 3.2-1.8 7.2-1.8 4.4 0 7.6 1.7 3.2 1.8 4.7 5.1 1.7 3.2 1.7 7.8 0 4-1.8 7.3-1.7 3.2-4.8 5.1-3.2 1.8-7.4 1.8zm0-4.9q3.7 0 5.6-2.5 1.9-2.4 1.9-6.7 0-4.8-1.9-7.3-1.8-2.5-5.6-2.5-2.3 0-4 1.2-1.7 1.1-2.6 3.3-0.9 2.2-0.9 5.3 0 4.3 1.9 6.7 1.9 2.5 5.6 2.5zm23.5-29.3q-1.9 0-3.1-1-1.1-1.1-1.1-2.9 0-1.8 1.1-2.9 1.2-1.1 3.1-1.1 1.9 0 3 1.1 1.2 1.1 1.2 2.9 0 1.8-1.2 2.9-1.1 1-3 1zm-11.8 47.5l-0.7-4.8q3.6-0.8 5.7-2.7 2-2 2.8-5 0.8-3 0.8-7.4l0.1-21.6h6.1l-0.1 22.5q0 5.9-1.6 9.8-1.4 4-4.7 6.2-3.2 2.3-8.4 3zm27.8-26.6q0.2 4.1 2.7 6.4 2.5 2.1 6.8 2.1 2.4 0 4.4-0.4 2-0.5 4.4-1.6l-0.4 5q-4.4 1.8-9.7 1.8-4.9 0-8.2-1.8-3.3-2-4.9-5.2-1.6-3.3-1.6-7.5 0-4.1 1.6-7.4 1.6-3.3 4.7-5.1 3-1.8 7.1-1.8 4.5 0 7.3 2.1 2.9 2.1 4.2 5.6 1.3 3.4 1.3 7.8zm6.6-11.2q-2.8 0-4.6 1.8-1.7 1.8-2 5.1h13.1q0-3.2-1.7-5-1.7-1.9-4.8-1.9zm30.6 24.5q-4.6 0-7.7-1.9-3.1-1.9-4.6-5.1-1.5-3.3-1.5-7.3 0-4.5 1.8-7.7 1.8-3.3 5.2-5.1 3.3-1.7 7.7-1.7 3.5 0 7 1.1v5.1q-1.8-0.7-3.5-1-1.6-0.4-3.4-0.4-2.6 0-4.5 1.1-1.9 1.1-3 3.2-1 2.1-1 5 0 4.4 2.2 7 2.2 2.6 6.6 2.6 2.7 0 6.5-1.3l-0.2 5q-3.7 1.4-7.6 1.4zm24.4-4.8q2 0 4.6-0.9l-0.3 4.4q-1.4 0.6-3 1-1.7 0.3-3.3 0.3-4.1 0-6.1-2-2-1.9-2-6.1l0.1-15.5h-4.1v-4.6h4.1v-6.1l6-0.4v6.5h7.9v4.6h-7.9v13.4q0 2.2 0.4 3.3 0.4 1.2 1.2 1.7 0.9 0.4 2.4 0.4zm13.2 5q-1.9 0-3.1-1.1-1.1-1.2-1.1-3 0-1.9 1.2-3 1.2-1 3-1 1.8 0 2.9 1 1.3 1.1 1.3 3 0 1.8-1.2 3-1.1 1.1-3 1.1zm0-20.3q-1.9 0-3.1-1.2-1.1-1.2-1.1-3 0-1.9 1.2-2.9 1.2-1.1 3-1.1 1.8 0 2.9 1.1 1.3 1 1.3 2.9 0 1.8-1.2 3-1.1 1.2-3 1.2zm42.7 20.1q-5.7 0-10.1-2.2-4.3-2.2-6.7-6.5-2.3-4.3-2.3-10.3 0-5.5 2.2-9.9 2.4-4.4 6.8-6.9 4.5-2.6 10.7-2.6 2.8 0 5.5 0.6 2.7 0.4 5.2 1.3v5.5q-2.8-1.3-5.5-1.9-2.7-0.5-5-0.5-4.3 0-7.3 1.8-2.9 1.8-4.4 5.1-1.5 3.1-1.5 7.3 0 3.7 1.4 6.9 1.3 3.2 4.3 5.2 2.9 2 7.3 2 2.5 0 5-0.5 2.6-0.5 5.3-1.5l-0.1 5.3q-4.8 1.8-10.8 1.8zm26.7 0q-2.8 0-5.8-0.5-3-0.6-5.6-1.6v-5.8q6.3 2.6 11.8 2.6 3.7 0 5.6-1.5 2-1.5 2-4 0-1.3-0.5-2.2-0.6-1-2-1.7-1.3-0.8-3.6-1.5l-3.6-1q-3.6-1-5.7-2.3-2.2-1.4-3.1-3.3-1-1.9-1-4.6 0-3 1.6-5.5 1.5-2.5 4.7-4 3.3-1.5 8.1-1.5 2.5 0 5.2 0.6 2.7 0.5 4.7 1.3l0.1 5.5q-2.6-1.3-5.3-1.9-2.6-0.6-5-0.6-2.5 0-4.2 0.7-1.7 0.7-2.6 1.9-0.7 1.2-0.7 2.7 0 2 1.2 3.1 1.2 1.2 3.5 1.8l4.7 1.2q3.6 1 5.8 2.4 2.2 1.4 3.2 3.3 1.1 2 1.1 4.8 0 3.7-1.8 6.3-1.9 2.6-5.2 4-3.3 1.3-7.6 1.3zm55.1-15.6h6.7v4.7h-6.7v10.3h-6v-10.3h-16.9v-4.6l15.4-22.2h7.5zm-5.9-16.3l-10.9 16.3h10.8zm15.5 1.6l12.5-7.5h4.7l-0.1 37.1h-6.2l0.1-31.1-8.4 5.5zm42.5 30.3q-3.9 0-6.8-2.1-3-2-4.7-6.1-1.7-4.1-1.7-10.1 0-6.6 1.9-11.1 1.9-4.6 5.1-6.8 3.3-2.2 7.4-2.2 3.9 0 6.8 2.2 2.9 2.2 4.4 6.5 1.6 4.3 1.6 10.3 0 5.7-1.8 10.2-1.8 4.4-4.9 6.8-3.2 2.4-7.3 2.4zm0.5-5q1.9 0 3.5-1.5 1.6-1.4 2.6-4.7 0.9-3.2 0.9-8.2 0-7.5-1.9-10.8-1.9-3.2-4.9-3.2-2.1 0-3.8 1.5-1.6 1.5-2.6 4.8-0.9 3.2-0.9 8.2 0 7 1.7 10.4 1.8 3.5 5.4 3.5z"/>
	<path id="Shape 1" fill-rule="evenodd" class="s5" d="m82.58 52.22q0.06 0.94-0.13 1.53l-7.86 26.42q-0.21 0.7-0.92 1.11-0.71 0.42-1.47 0.42h-24.21q-3.14 0-3.77-1.88-0.26-0.72 0.02-1.15 0.29-0.4 1-0.4h22.79q2.44 0 3.37-0.92 0.93-0.93 1.87-4.11l7.19-24.26q0.58-1.98-0.47-3.48-1.05-1.5-2.99-1.5h-19.96q-0.34 0-1.34 0.24l0.03-0.08q-0.73-0.16-1.25-0.15-0.51 0.02-0.94 0.31-0.43 0.3-0.69 0.63-0.27 0.34-0.52 0.86-0.25 0.52-0.42 0.96-0.17 0.44-0.39 0.94-0.22 0.49-0.43 0.81-0.16 0.22-0.45 0.57-0.29 0.35-0.47 0.61-0.18 0.27-0.24 0.48-0.05 0.25 0.06 0.71 0.1 0.47 0.08 0.69-0.11 1.01-0.73 2.58-0.61 1.57-1.11 2.26-0.1 0.14-0.58 0.61-0.47 0.46-0.57 0.81-0.11 0.14-0.02 0.75 0.09 0.62 0.07 0.86-0.11 0.91-0.66 2.41-0.55 1.5-1.1 2.46-0.08 0.16-0.44 0.62-0.37 0.45-0.45 0.75-0.05 0.21 0.01 0.75 0.07 0.53-0.01 0.8-0.21 1.02-0.79 2.45-0.57 1.43-1.18 2.45-0.15 0.27-0.43 0.63-0.27 0.36-0.43 0.63-0.16 0.27-0.21 0.56-0.03 0.16 0.08 0.52 0.1 0.36 0.08 0.58-0.03 0.37-0.11 0.99-0.08 0.61-0.08 0.72-0.58 1.61 0.05 3.4 0.74 2.09 2.61 3.52 1.88 1.43 3.9 1.43h24.2q1.71 0.01 3.22-1.16 1.5-1.16 2-2.88l7.21-24.26q0.58-1.92-0.47-3.45-0.55-0.75-1.55-1.15zm-25.8-0.51q0.1-0.35 0.43-0.6 0.33-0.26 0.67-0.26h15.95q0.36 0 0.52 0.26 0.16 0.25 0.05 0.6l-0.55 1.71q-0.1 0.35-0.43 0.61-0.33 0.25-0.67 0.25h-15.94q-0.37 0-0.53-0.25-0.16-0.26-0.05-0.61zm-2.18 6.86q0.11-0.35 0.43-0.6 0.33-0.26 0.67-0.26h15.95q0.37 0 0.52 0.26 0.16 0.25 0.06 0.6l-0.56 1.71q-0.1 0.35-0.43 0.6-0.33 0.26-0.67 0.26h-15.94q-0.37 0-0.53-0.26-0.15-0.25-0.05-0.6z"/>
</svg>